<svg width="144" height="14" viewBox="0 0 144 14" fill="none" xmlns="http://www.w3.org/2000/svg">
<path d="M7.905 9.135C7.905 9.615 7.785 10.075 7.545 10.515C7.305 10.945 6.95 11.305 6.48 11.595C6.02 11.885 5.465 12.05 4.815 12.09V13.305H4.005V12.09C3.095 12.01 2.355 11.72 1.785 11.22C1.215 10.71 0.925 10.065 0.915 9.285H2.37C2.41 9.705 2.565 10.07 2.835 10.38C3.115 10.69 3.505 10.885 4.005 10.965V7.215C3.335 7.045 2.795 6.87 2.385 6.69C1.975 6.51 1.625 6.23 1.335 5.85C1.045 5.47 0.9 4.96 0.9 4.32C0.9 3.51 1.18 2.84 1.74 2.31C2.31 1.78 3.065 1.485 4.005 1.425V0.179999H4.815V1.425C5.665 1.495 6.35 1.77 6.87 2.25C7.39 2.72 7.69 3.335 7.77 4.095H6.315C6.265 3.745 6.11 3.43 5.85 3.15C5.59 2.86 5.245 2.67 4.815 2.58V6.24C5.475 6.41 6.01 6.585 6.42 6.765C6.84 6.935 7.19 7.21 7.47 7.59C7.76 7.97 7.905 8.485 7.905 9.135ZM2.295 4.245C2.295 4.735 2.44 5.11 2.73 5.37C3.02 5.63 3.445 5.845 4.005 6.015V2.55C3.485 2.6 3.07 2.77 2.76 3.06C2.45 3.34 2.295 3.735 2.295 4.245ZM4.815 10.98C5.355 10.92 5.775 10.725 6.075 10.395C6.385 10.065 6.54 9.67 6.54 9.21C6.54 8.72 6.39 8.345 6.09 8.085C5.79 7.815 5.365 7.6 4.815 7.44V10.98ZM10.0961 10.905C11.3661 9.885 12.3611 9.05 13.0811 8.4C13.8011 7.74 14.4061 7.055 14.8961 6.345C15.3961 5.625 15.6461 4.92 15.6461 4.23C15.6461 3.58 15.4861 3.07 15.1661 2.7C14.8561 2.32 14.3511 2.13 13.6511 2.13C12.9711 2.13 12.4411 2.345 12.0611 2.775C11.6911 3.195 11.4911 3.76 11.4611 4.47H10.1411C10.1811 3.35 10.5211 2.485 11.1611 1.875C11.8011 1.265 12.6261 0.959999 13.6361 0.959999C14.6661 0.959999 15.4811 1.245 16.0811 1.815C16.6911 2.385 16.9961 3.17 16.9961 4.17C16.9961 5 16.7461 5.81 16.2461 6.6C15.7561 7.38 15.1961 8.07 14.5661 8.67C13.9361 9.26 13.1311 9.95 12.1511 10.74H17.3111V11.88H10.0961V10.905ZM18.724 10.905C19.994 9.885 20.989 9.05 21.709 8.4C22.429 7.74 23.034 7.055 23.524 6.345C24.024 5.625 24.274 4.92 24.274 4.23C24.274 3.58 24.114 3.07 23.794 2.7C23.484 2.32 22.979 2.13 22.279 2.13C21.599 2.13 21.069 2.345 20.689 2.775C20.319 3.195 20.119 3.76 20.089 4.47H18.769C18.809 3.35 19.149 2.485 19.789 1.875C20.429 1.265 21.254 0.959999 22.264 0.959999C23.294 0.959999 24.109 1.245 24.709 1.815C25.319 2.385 25.624 3.17 25.624 4.17C25.624 5 25.374 5.81 24.874 6.6C24.384 7.38 23.824 8.07 23.194 8.67C22.564 9.26 21.759 9.95 20.779 10.74H25.939V11.88H18.724V10.905ZM29.2719 9.09C29.3719 9.66 29.6019 10.1 29.9619 10.41C30.3319 10.72 30.8269 10.875 31.4469 10.875C32.2769 10.875 32.8869 10.55 33.2769 9.9C33.6769 9.25 33.8669 8.155 33.8469 6.615C33.6369 7.065 33.2869 7.42 32.7969 7.68C32.3069 7.93 31.7619 8.055 31.1619 8.055C30.4919 8.055 29.8919 7.92 29.3619 7.65C28.8419 7.37 28.4319 6.965 28.1319 6.435C27.8319 5.905 27.6819 5.265 27.6819 4.515C27.6819 3.445 27.9919 2.585 28.6119 1.935C29.2319 1.275 30.1119 0.944999 31.2519 0.944999C32.6519 0.944999 33.6319 1.4 34.1919 2.31C34.7619 3.22 35.0469 4.575 35.0469 6.375C35.0469 7.635 34.9319 8.675 34.7019 9.495C34.4819 10.315 34.1019 10.94 33.5619 11.37C33.0319 11.8 32.3019 12.015 31.3719 12.015C30.3519 12.015 29.5569 11.74 28.9869 11.19C28.4169 10.64 28.0919 9.94 28.0119 9.09H29.2719ZM31.3869 6.9C32.0569 6.9 32.6069 6.695 33.0369 6.285C33.4669 5.865 33.6819 5.3 33.6819 4.59C33.6819 3.84 33.4719 3.235 33.0519 2.775C32.6319 2.315 32.0419 2.085 31.2819 2.085C30.5819 2.085 30.0219 2.305 29.6019 2.745C29.1919 3.185 28.9869 3.765 28.9869 4.485C28.9869 5.215 29.1919 5.8 29.6019 6.24C30.0119 6.68 30.6069 6.9 31.3869 6.9ZM37.6252 12.09C37.3652 12.09 37.1452 12 36.9652 11.82C36.7852 11.64 36.6952 11.42 36.6952 11.16C36.6952 10.9 36.7852 10.68 36.9652 10.5C37.1452 10.32 37.3652 10.23 37.6252 10.23C37.8752 10.23 38.0852 10.32 38.2552 10.5C38.4352 10.68 38.5252 10.9 38.5252 11.16C38.5252 11.42 38.4352 11.64 38.2552 11.82C38.0852 12 37.8752 12.09 37.6252 12.09ZM40.1146 6.465C40.1146 4.745 40.3946 3.405 40.9546 2.445C41.5146 1.475 42.4946 0.99 43.8946 0.99C45.2846 0.99 46.2596 1.475 46.8196 2.445C47.3796 3.405 47.6596 4.745 47.6596 6.465C47.6596 8.215 47.3796 9.575 46.8196 10.545C46.2596 11.515 45.2846 12 43.8946 12C42.4946 12 41.5146 11.515 40.9546 10.545C40.3946 9.575 40.1146 8.215 40.1146 6.465ZM46.3096 6.465C46.3096 5.595 46.2496 4.86 46.1296 4.26C46.0196 3.65 45.7846 3.16 45.4246 2.79C45.0746 2.42 44.5646 2.235 43.8946 2.235C43.2146 2.235 42.6946 2.42 42.3346 2.79C41.9846 3.16 41.7496 3.65 41.6296 4.26C41.5196 4.86 41.4646 5.595 41.4646 6.465C41.4646 7.365 41.5196 8.12 41.6296 8.73C41.7496 9.34 41.9846 9.83 42.3346 10.2C42.6946 10.57 43.2146 10.755 43.8946 10.755C44.5646 10.755 45.0746 10.57 45.4246 10.2C45.7846 9.83 46.0196 9.34 46.1296 8.73C46.2496 8.12 46.3096 7.365 46.3096 6.465ZM49.5335 6.465C49.5335 4.745 49.8135 3.405 50.3735 2.445C50.9335 1.475 51.9135 0.99 53.3135 0.99C54.7035 0.99 55.6785 1.475 56.2385 2.445C56.7985 3.405 57.0785 4.745 57.0785 6.465C57.0785 8.215 56.7985 9.575 56.2385 10.545C55.6785 11.515 54.7035 12 53.3135 12C51.9135 12 50.9335 11.515 50.3735 10.545C49.8135 9.575 49.5335 8.215 49.5335 6.465ZM55.7285 6.465C55.7285 5.595 55.6685 4.86 55.5485 4.26C55.4385 3.65 55.2035 3.16 54.8435 2.79C54.4935 2.42 53.9835 2.235 53.3135 2.235C52.6335 2.235 52.1135 2.42 51.7535 2.79C51.4035 3.16 51.1685 3.65 51.0485 4.26C50.9385 4.86 50.8835 5.595 50.8835 6.465C50.8835 7.365 50.9385 8.12 51.0485 8.73C51.1685 9.34 51.4035 9.83 51.7535 10.2C52.1135 10.57 52.6335 10.755 53.3135 10.755C53.9835 10.755 54.4935 10.57 54.8435 10.2C55.2035 9.83 55.4385 9.34 55.5485 8.73C55.6685 8.12 55.7285 7.365 55.7285 6.465Z" fill="#22262A"/>
<path d="M97.9196 9.135C97.9196 9.615 97.7996 10.075 97.5596 10.515C97.3196 10.945 96.9646 11.305 96.4946 11.595C96.0346 11.885 95.4796 12.05 94.8296 12.09V13.305H94.0196V12.09C93.1096 12.01 92.3696 11.72 91.7996 11.22C91.2296 10.71 90.9396 10.065 90.9296 9.285H92.3846C92.4246 9.705 92.5796 10.07 92.8496 10.38C93.1296 10.69 93.5196 10.885 94.0196 10.965V7.215C93.3496 7.045 92.8096 6.87 92.3996 6.69C91.9896 6.51 91.6396 6.23 91.3496 5.85C91.0596 5.47 90.9146 4.96 90.9146 4.32C90.9146 3.51 91.1946 2.84 91.7546 2.31C92.3246 1.78 93.0796 1.485 94.0196 1.425V0.179999H94.8296V1.425C95.6796 1.495 96.3646 1.77 96.8846 2.25C97.4046 2.72 97.7046 3.335 97.7846 4.095H96.3296C96.2796 3.745 96.1246 3.43 95.8646 3.15C95.6046 2.86 95.2596 2.67 94.8296 2.58V6.24C95.4896 6.41 96.0246 6.585 96.4346 6.765C96.8546 6.935 97.2046 7.21 97.4846 7.59C97.7746 7.97 97.9196 8.485 97.9196 9.135ZM92.3096 4.245C92.3096 4.735 92.4546 5.11 92.7446 5.37C93.0346 5.63 93.4596 5.845 94.0196 6.015V2.55C93.4996 2.6 93.0846 2.77 92.7746 3.06C92.4646 3.34 92.3096 3.735 92.3096 4.245ZM94.8296 10.98C95.3696 10.92 95.7896 10.725 96.0896 10.395C96.3996 10.065 96.5546 9.67 96.5546 9.21C96.5546 8.72 96.4046 8.345 96.1046 8.085C95.8046 7.815 95.3796 7.6 94.8296 7.44V10.98ZM99.9157 2.4V1.155H102.736V12H101.356V2.4H99.9157ZM104.915 10.905C106.185 9.885 107.18 9.05 107.9 8.4C108.62 7.74 109.225 7.055 109.715 6.345C110.215 5.625 110.465 4.92 110.465 4.23C110.465 3.58 110.305 3.07 109.985 2.7C109.675 2.32 109.17 2.13 108.47 2.13C107.79 2.13 107.26 2.345 106.88 2.775C106.51 3.195 106.31 3.76 106.28 4.47H104.96C105 3.35 105.34 2.485 105.98 1.875C106.62 1.265 107.445 0.959999 108.455 0.959999C109.485 0.959999 110.3 1.245 110.9 1.815C111.51 2.385 111.815 3.17 111.815 4.17C111.815 5 111.565 5.81 111.065 6.6C110.575 7.38 110.015 8.07 109.385 8.67C108.755 9.26 107.95 9.95 106.97 10.74H112.13V11.88H104.915V10.905ZM115.463 9.09C115.563 9.66 115.793 10.1 116.153 10.41C116.523 10.72 117.018 10.875 117.638 10.875C118.468 10.875 119.078 10.55 119.468 9.9C119.868 9.25 120.058 8.155 120.038 6.615C119.828 7.065 119.478 7.42 118.988 7.68C118.498 7.93 117.953 8.055 117.353 8.055C116.683 8.055 116.083 7.92 115.553 7.65C115.033 7.37 114.623 6.965 114.323 6.435C114.023 5.905 113.873 5.265 113.873 4.515C113.873 3.445 114.183 2.585 114.803 1.935C115.423 1.275 116.303 0.944999 117.443 0.944999C118.843 0.944999 119.823 1.4 120.383 2.31C120.953 3.22 121.238 4.575 121.238 6.375C121.238 7.635 121.123 8.675 120.893 9.495C120.673 10.315 120.293 10.94 119.753 11.37C119.223 11.8 118.493 12.015 117.563 12.015C116.543 12.015 115.748 11.74 115.178 11.19C114.608 10.64 114.283 9.94 114.203 9.09H115.463ZM117.578 6.9C118.248 6.9 118.798 6.695 119.228 6.285C119.658 5.865 119.873 5.3 119.873 4.59C119.873 3.84 119.663 3.235 119.243 2.775C118.823 2.315 118.233 2.085 117.473 2.085C116.773 2.085 116.213 2.305 115.793 2.745C115.383 3.185 115.178 3.765 115.178 4.485C115.178 5.215 115.383 5.8 115.793 6.24C116.203 6.68 116.798 6.9 117.578 6.9ZM123.817 12.09C123.557 12.09 123.337 12 123.157 11.82C122.977 11.64 122.887 11.42 122.887 11.16C122.887 10.9 122.977 10.68 123.157 10.5C123.337 10.32 123.557 10.23 123.817 10.23C124.067 10.23 124.277 10.32 124.447 10.5C124.627 10.68 124.717 10.9 124.717 11.16C124.717 11.42 124.627 11.64 124.447 11.82C124.277 12 124.067 12.09 123.817 12.09ZM126.306 6.465C126.306 4.745 126.586 3.405 127.146 2.445C127.706 1.475 128.686 0.99 130.086 0.99C131.476 0.99 132.451 1.475 133.011 2.445C133.571 3.405 133.851 4.745 133.851 6.465C133.851 8.215 133.571 9.575 133.011 10.545C132.451 11.515 131.476 12 130.086 12C128.686 12 127.706 11.515 127.146 10.545C126.586 9.575 126.306 8.215 126.306 6.465ZM132.501 6.465C132.501 5.595 132.441 4.86 132.321 4.26C132.211 3.65 131.976 3.16 131.616 2.79C131.266 2.42 130.756 2.235 130.086 2.235C129.406 2.235 128.886 2.42 128.526 2.79C128.176 3.16 127.941 3.65 127.821 4.26C127.711 4.86 127.656 5.595 127.656 6.465C127.656 7.365 127.711 8.12 127.821 8.73C127.941 9.34 128.176 9.83 128.526 10.2C128.886 10.57 129.406 10.755 130.086 10.755C130.756 10.755 131.266 10.57 131.616 10.2C131.976 9.83 132.211 9.34 132.321 8.73C132.441 8.12 132.501 7.365 132.501 6.465ZM135.725 6.465C135.725 4.745 136.005 3.405 136.565 2.445C137.125 1.475 138.105 0.99 139.505 0.99C140.895 0.99 141.87 1.475 142.43 2.445C142.99 3.405 143.27 4.745 143.27 6.465C143.27 8.215 142.99 9.575 142.43 10.545C141.87 11.515 140.895 12 139.505 12C138.105 12 137.125 11.515 136.565 10.545C136.005 9.575 135.725 8.215 135.725 6.465ZM141.92 6.465C141.92 5.595 141.86 4.86 141.74 4.26C141.63 3.65 141.395 3.16 141.035 2.79C140.685 2.42 140.175 2.235 139.505 2.235C138.825 2.235 138.305 2.42 137.945 2.79C137.595 3.16 137.36 3.65 137.24 4.26C137.13 4.86 137.075 5.595 137.075 6.465C137.075 7.365 137.13 8.12 137.24 8.73C137.36 9.34 137.595 9.83 137.945 10.2C138.305 10.57 138.825 10.755 139.505 10.755C140.175 10.755 140.685 10.57 141.035 10.2C141.395 9.83 141.63 9.34 141.74 8.73C141.86 8.12 141.92 7.365 141.92 6.465Z" fill="#CF2929"/>
</svg>
